# xmcd
#
# Track frame offsets:
#	150
#	18675
#	31500
#	51525
#	66750
#	84825
#	99825
#	118275
#	133650
#	150300
#	165975
#	183075
#	199500
#	214050
#	235425
#	250350
#	263550
#	278250
#
# Disc length: 3942 seconds
#
# Revision: 1
# Processed by: cddbd v1.5.1PL0 Copyright (c) Steve Scherf et al.
# Submitted via: audiograbber 1.83.01
#
DISCID=e40f6412
DTITLE=Pioneer CD+G - PI214
DYEAR=1994
DGENRE=Karaoke
TTITLE0=Montgomery, John Michael - I Love The Way You Love Me
TTITLE1=Cline, Patsy - Sweet Dreams
TTITLE2=Tucker, Tanya - Two Sparrows In A Hurricane
TTITLE3=Sawyer Brown - Some Girls Do
TTITLE4=Brooks and Dunn - Lost And Found
TTITLE5=Brooks and Dunn - Brand New Man
TTITLE6=Oslin, K.T. - Come Next Monday
TTITLE7=Jackson, Alan - Chasin' That Neon Rainbow
TTITLE8=Tillis, Pam - Let That Pony Run
TTITLE9=Tillis, Pam - Shake The Sugar Tree
TTITLE10=Ketchum, Hal - I Know Where Love Lives
TTITLE11=Jennings, Waylon - Good Hearted Woman, A
TTITLE12=Cash, Rosanne - Tennessee Flat Top Box
TTITLE13=Restless Heart - Bluest Eyes In Texas, The
TTITLE14=Gilley, Mickey - Room Full Of Roses, A
TTITLE15=Paycheck, Johnny - Take This Job And Shove It
TTITLE16=Murray, Anne - Just Another Woman In Love
TTITLE17=Lee, Johnny - Lookin' For Love
EXTD=©1994 Pioneer LDCA, Inc.
EXTT0=
EXTT1=
EXTT2=
EXTT3=
EXTT4=
EXTT5=
EXTT6=
EXTT7=
EXTT8=
EXTT9=
EXTT10=
EXTT11=
EXTT12=
EXTT13=
EXTT14=
EXTT15=
EXTT16=
EXTT17=
PLAYORDER=
